<?xml version="1.0" encoding="UTF-8" standalone="no"?>
<!-- Created with Inkscape (http://www.inkscape.org/) -->

<svg
   width="90.858604mm"
   height="97.2108mm"
   viewBox="0 0 90.858605 97.210801"
   version="1.1"
   id="svg5"
   sodipodi:docname="custom.svg"
   inkscape:version="1.1.2 (b8e25be8, 2022-02-05)"
   xmlns:inkscape="http://www.inkscape.org/namespaces/inkscape"
   xmlns:sodipodi="http://sodipodi.sourceforge.net/DTD/sodipodi-0.dtd"
   xmlns="http://www.w3.org/2000/svg"
   xmlns:svg="http://www.w3.org/2000/svg">
  <sodipodi:namedview
     id="namedview836"
     pagecolor="#ffffff"
     bordercolor="#666666"
     borderopacity="1.0"
     inkscape:pageshadow="2"
     inkscape:pageopacity="0.0"
     inkscape:pagecheckerboard="0"
     inkscape:document-units="mm"
     showgrid="false"
     inkscape:zoom="2.6931851"
     inkscape:cx="159.10529"
     inkscape:cy="168.75929"
     inkscape:window-width="1920"
     inkscape:window-height="1027"
     inkscape:window-x="1728"
     inkscape:window-y="25"
     inkscape:window-maximized="0"
     inkscape:current-layer="svg5"
     fit-margin-top="10"
     fit-margin-left="10"
     fit-margin-right="10"
     fit-margin-bottom="10" />
  <defs
     id="defs2" />
  <g
     id="layer1"
     transform="translate(-56.954971,-106.54271)"
     style="fill-rule:evenodd">
    <g
       id="g836"
       transform="translate(-2.1038961,41.025974)"
       style="fill-rule:evenodd">
      <path
         style="fill-opacity:1;fill-rule:evenodd;stroke-width:0.264583"
         d="m 102.72071,125.51025 c 0,-0.80036 0.0496,-1.12778 0.11022,-0.7276 0.0606,0.40018 0.0606,1.05503 0,1.45521 -0.0606,0.40018 -0.11022,0.0728 -0.11022,-0.72761 z m 3.40207,-3.43958 c 0,-0.3638 0.0601,-0.51263 0.13346,-0.33073 0.0734,0.1819 0.0734,0.47956 0,0.66146 -0.0734,0.1819 -0.13346,0.0331 -0.13346,-0.33073 z m -28.066718,-6.50434 c 0.01269,-0.30822 0.07539,-0.37092 0.159852,-0.15985 0.07643,0.19099 0.06703,0.4192 -0.02089,0.50712 -0.08792,0.0879 -0.150453,-0.0684 -0.138964,-0.34727 z m 26.106718,-2.13755 c 0.1819,-0.0734 0.47956,-0.0734 0.66146,0 0.1819,0.0734 0.0331,0.13345 -0.33073,0.13345 -0.36381,0 -0.51263,-0.0601 -0.33073,-0.13345 z"
         id="path852" />
      <path
         style="fill-opacity:1;fill-rule:evenodd;stroke-width:0.264583"
         d="m 139.70398,130.11842 c 0.0127,-0.30823 0.0754,-0.37092 0.15985,-0.15986 0.0764,0.191 0.067,0.4192 -0.0209,0.50712 -0.0879,0.0879 -0.15045,-0.0683 -0.13896,-0.34726 z m -36.97787,-1.69775 c 0,-0.94588 0.048,-1.33284 0.10671,-0.85989 0.0587,0.47294 0.0587,1.24684 0,1.71979 -0.0587,0.47294 -0.10671,0.086 -0.10671,-0.8599 z m -33.665882,0.63941 c 0.0127,-0.30822 0.07539,-0.37092 0.159853,-0.15985 0.07643,0.19099 0.06703,0.4192 -0.02089,0.50712 -0.08792,0.0879 -0.150453,-0.0684 -0.138963,-0.34727 z M 106.12278,123.129 c 0,-0.3638 0.0601,-0.51263 0.13346,-0.33072 0.0734,0.1819 0.0734,0.47955 0,0.66145 -0.0734,0.1819 -0.13346,0.0331 -0.13346,-0.33073 z m -28.066718,-8.35642 c 0.01269,-0.30822 0.07539,-0.37092 0.159852,-0.15985 0.07643,0.19099 0.06703,0.4192 -0.02089,0.50712 -0.08792,0.0879 -0.150453,-0.0683 -0.138964,-0.34727 z m -8.995834,-12.43541 c 0.0127,-0.30823 0.07539,-0.37092 0.159853,-0.15986 0.07643,0.191 0.06703,0.4192 -0.02089,0.50712 -0.08792,0.0879 -0.150453,-0.0684 -0.138963,-0.34726 z m 25.908279,-9.238374 c 0.341776,-0.363802 0.68094,-0.661458 0.7537,-0.661458 0.07276,0 -0.147341,0.297656 -0.489117,0.661458 -0.341775,0.363802 -0.680939,0.661459 -0.7537,0.661459 -0.07276,0 0.147341,-0.297657 0.489117,-0.661459 z"
         id="path850" />
      <path
         style="fill-opacity:1;fill-rule:evenodd;stroke-width:0.264583"
         d="m 102.66231,148.90383 c 0.0127,-0.30822 0.0754,-0.37092 0.15985,-0.15985 0.0764,0.19099 0.067,0.4192 -0.0209,0.50712 -0.0879,0.0879 -0.15046,-0.0684 -0.13897,-0.34727 z m 3.43959,0 c 0.0127,-0.30822 0.0754,-0.37092 0.15985,-0.15985 0.0764,0.19099 0.067,0.4192 -0.0209,0.50712 -0.0879,0.0879 -0.15045,-0.0684 -0.13896,-0.34727 z m -3.37152,-17.04358 c 0,-1.0914 0.0467,-1.53789 0.10378,-0.99218 0.0571,0.5457 0.0571,1.43867 0,1.98437 -0.0571,0.54571 -0.10378,0.0992 -0.10378,-0.99219 z m -33.649263,-3.70416 c 0,-0.3638 0.06005,-0.51263 0.133452,-0.33073 0.0734,0.1819 0.0734,0.47956 0,0.66146 -0.0734,0.1819 -0.133452,0.0331 -0.133452,-0.33073 z m 37.041663,-3.96875 c 0,-0.3638 0.0601,-0.51263 0.13346,-0.33073 0.0734,0.1819 0.0734,0.47956 0,0.66146 -0.0734,0.1819 -0.13346,0.0331 -0.13346,-0.33073 z M 78.056062,113.97883 c 0.01269,-0.30822 0.07539,-0.37092 0.159852,-0.15985 0.07643,0.19099 0.06703,0.4192 -0.02089,0.50712 -0.08792,0.0879 -0.150453,-0.0683 -0.138964,-0.34727 z m -8.995834,-10.84791 c 0.0127,-0.30823 0.07539,-0.37092 0.159853,-0.15986 0.07643,0.191 0.06703,0.4192 -0.02089,0.50712 -0.08792,0.0879 -0.150453,-0.0683 -0.138963,-0.34726 z m 70.643752,-0.26459 c 0.0127,-0.30822 0.0754,-0.37092 0.15985,-0.15985 0.0764,0.19099 0.067,0.4192 -0.0209,0.50712 -0.0879,0.0879 -0.15045,-0.0683 -0.13896,-0.34727 z"
         id="path848" />
      <path
         style="fill-opacity:1;fill-rule:evenodd;stroke-width:0.264583"
         d="m 102.66231,148.11008 c 0.0127,-0.30822 0.0754,-0.37092 0.15985,-0.15985 0.0764,0.19099 0.067,0.4192 -0.0209,0.50712 -0.0879,0.0879 -0.15046,-0.0683 -0.13897,-0.34727 z m 0.0659,-12.67795 c 10e-4,-1.01865 0.049,-1.40294 0.10628,-0.854 0.0573,0.54895 0.0563,1.38239 -0.002,1.85209 -0.0585,0.4697 -0.10531,0.0206 -0.10414,-0.99809 z m 36.99663,-6.74688 c 0,-0.3638 0.06,-0.51263 0.13345,-0.33072 0.0734,0.1819 0.0734,0.47955 0,0.66145 -0.0734,0.1819 -0.13345,0.0331 -0.13345,-0.33073 z m -70.643753,-1.5875 c 0,-0.3638 0.06005,-0.51263 0.133452,-0.33072 0.0734,0.1819 0.0734,0.47955 0,0.66145 -0.0734,0.1819 -0.133452,0.0331 -0.133452,-0.33073 z m 37.051473,-1.71979 c 0.005,-0.43656 0.0647,-0.58312 0.13177,-0.32569 0.0671,0.25743 0.0627,0.61462 -0.01,0.79375 -0.0725,0.17913 -0.12736,-0.0315 -0.12197,-0.46806 z m 24.88063,-8.86354 c 0,-0.50932 0.0545,-0.71768 0.12101,-0.46302 0.0665,0.25466 0.0665,0.67138 0,0.92604 -0.0666,0.25466 -0.12101,0.0463 -0.12101,-0.46302 z m -52.957158,-3.32934 c 0.01269,-0.30822 0.07539,-0.37092 0.159852,-0.15985 0.07643,0.19099 0.06703,0.4192 -0.02089,0.50712 -0.08792,0.0879 -0.150453,-0.0683 -0.138964,-0.34727 z m -8.965141,-8.97378 c 0.0054,-0.43657 0.06469,-0.58313 0.131773,-0.3257 0.06708,0.25743 0.06267,0.61462 -0.0098,0.79375 -0.07248,0.17913 -0.127363,-0.0315 -0.12197,-0.46805 z m 70.613059,-0.55122 c 0.0127,-0.30822 0.0754,-0.37092 0.15985,-0.15985 0.0764,0.19099 0.067,0.4192 -0.0209,0.50712 -0.0879,0.0879 -0.15045,-0.0684 -0.13896,-0.34727 z"
         id="path846" />
      <path
         style="fill-opacity:1;fill-rule:evenodd;stroke-width:0.264583"
         d="m 106.1019,147.58092 c 0.0127,-0.30823 0.0754,-0.37092 0.15985,-0.15986 0.0764,0.191 0.067,0.4192 -0.0209,0.50712 -0.0879,0.0879 -0.15045,-0.0684 -0.13896,-0.34726 z m -3.4187,-0.37483 c 0,-0.3638 0.0601,-0.51263 0.13345,-0.33073 0.0734,0.1819 0.0734,0.47956 0,0.66146 -0.0734,0.1819 -0.13345,0.0331 -0.13345,-0.33073 z m 0.0429,-8.46667 c 0,-0.94588 0.048,-1.33284 0.10671,-0.85989 0.0587,0.47294 0.0587,1.24684 0,1.71979 -0.0587,0.47294 -0.10671,0.086 -0.10671,-0.8599 z m 37.00856,-11.24479 c 0.005,-0.43656 0.0647,-0.58313 0.13177,-0.32569 0.0671,0.25743 0.0627,0.61461 -0.01,0.79375 -0.0725,0.17913 -0.12736,-0.0315 -0.12197,-0.46806 z m -33.60208,-0.79375 c 0.005,-0.43656 0.0647,-0.58313 0.13177,-0.32569 0.0671,0.25743 0.0627,0.61461 -0.01,0.79375 -0.0725,0.17913 -0.12736,-0.0315 -0.12197,-0.46806 z m 13.57446,-4.89479 c 0.26339,-0.29104 0.53842,-0.52917 0.61118,-0.52917 0.0728,0 -0.0832,0.23813 -0.3466,0.52917 -0.26339,0.29104 -0.53842,0.52916 -0.61118,0.52916 -0.0728,0 0.0832,-0.23812 0.3466,-0.52916 z m -50.595647,-15.875 c 0,-0.65485 0.0516,-0.92274 0.114663,-0.59531 0.06306,0.32742 0.06306,0.8632 0,1.19062 -0.06307,0.32742 -0.114663,0.0595 -0.114663,-0.59531 z m 70.613467,-1.32292 c 0,-0.3638 0.06,-0.51263 0.13345,-0.33073 0.0734,0.1819 0.0734,0.47956 0,0.66146 -0.0734,0.1819 -0.13345,0.0331 -0.13345,-0.33073 z m -36.2688,-13.118922 c 0.0127,-0.308225 0.0754,-0.37092 0.15985,-0.159853 0.0764,0.190996 0.067,0.4192 -0.0209,0.507118 -0.0879,0.08792 -0.15046,-0.06835 -0.13897,-0.347265 z"
         id="path844" />
      <path
         style="fill-opacity:1;fill-rule:evenodd;stroke-width:0.264583"
         d="m 106.12278,146.67692 c 0,-0.3638 0.0601,-0.51263 0.13346,-0.33073 0.0734,0.1819 0.0734,0.47956 0,0.66146 -0.0734,0.1819 -0.13346,0.0331 -0.13346,-0.33073 z m -3.3794,-3.175 c 0,-1.81901 0.0423,-2.56315 0.0939,-1.65364 0.0517,0.9095 0.0517,2.39778 0,3.30729 -0.0517,0.9095 -0.0939,0.16536 -0.0939,-1.65365 z m 3.39901,-15.34583 c 0,-0.50932 0.0544,-0.71768 0.121,-0.46302 0.0665,0.25466 0.0665,0.67138 0,0.92604 -0.0666,0.25466 -0.121,0.0463 -0.121,-0.46302 z m 33.61637,-2.51354 c 0.002,-0.72761 0.0534,-0.99386 0.11419,-0.59168 0.0608,0.40218 0.0592,0.9975 -0.004,1.32292 -0.0628,0.32542 -0.11256,-0.004 -0.11057,-0.73124 z m -70.626971,-4.8948 c 0,-1.23692 0.04558,-1.74294 0.101281,-1.12447 0.0557,0.61846 0.0557,1.63049 0,2.24895 -0.0557,0.61847 -0.101281,0.11245 -0.101281,-1.12448 z m 0,-7.9375 c 0,-1.23692 0.04558,-1.74294 0.101281,-1.12447 0.0557,0.61846 0.0557,1.63049 0,2.24895 -0.0557,0.61847 -0.101281,0.11245 -0.101281,-1.12448 z m 8.924273,-0.94808 c 0.01269,-0.30823 0.07539,-0.37092 0.159852,-0.15986 0.07643,0.191 0.06703,0.4192 -0.02089,0.50712 -0.08792,0.0879 -0.150453,-0.0683 -0.138964,-0.34726 z m -8.995834,-4.49792 c 0.0127,-0.30823 0.07539,-0.37092 0.159853,-0.15985 0.07643,0.19099 0.06703,0.41919 -0.02089,0.50711 -0.08792,0.0879 -0.150453,-0.0684 -0.138963,-0.34726 z m 70.698532,-1.03629 c 0.002,-0.7276 0.0534,-0.99385 0.11419,-0.59167 0.0608,0.40218 0.0592,0.99749 -0.004,1.32292 -0.0628,0.32542 -0.11256,-0.004 -0.11057,-0.73125 z"
         id="path842" />
      <path
         style="fill-opacity:1;fill-rule:evenodd;stroke-width:0.264583"
         d="m 106.14773,145.22171 c 0.003,-0.58208 0.0571,-0.78905 0.12041,-0.45993 0.0633,0.32912 0.0609,0.80537 -0.005,1.05833 -0.0662,0.25297 -0.118,-0.0163 -0.11507,-0.5984 z M 81.271558,135.03525 c 0,-0.50932 0.05445,-0.71768 0.121,-0.46302 0.06655,0.25467 0.06655,0.67138 0,0.92605 -0.06655,0.25466 -0.121,0.0463 -0.121,-0.46303 z m 24.891432,-4.6302 c 0.002,-0.87313 0.0509,-1.19842 0.10977,-0.72287 0.0589,0.47555 0.0577,1.18992 -0.003,1.5875 -0.0604,0.39758 -0.10855,0.008 -0.10707,-0.86463 z m 33.63833,-14.4198 c 0,-4.72942 0.0359,-6.66419 0.0797,-4.29947 0.0439,2.36471 0.0439,6.23424 0,8.59895 -0.0438,2.36472 -0.0797,0.42995 -0.0797,-4.29948 z M 101.2689,89.875347 c 0.19099,-0.07643 0.4192,-0.06703 0.50712,0.02089 0.0879,0.08792 -0.0684,0.150453 -0.34727,0.138965 -0.30823,-0.01269 -0.37092,-0.07539 -0.15985,-0.159853 z"
         id="path840" />
      <path
         style="fill-opacity:1;fill-rule:evenodd;stroke-width:0.264583"
         d="m 100.63084,152.58085 c -0.693797,-0.13671 -27.056953,-15.34154 -28.676755,-16.5392 -0.652464,-0.48242 -1.485901,-1.41223 -1.852083,-2.06624 l -0.665787,-1.18911 -0.07411,-15.97543 c -0.06532,-14.08073 -0.02537,-16.04982 0.336829,-16.60261 0.885173,-1.350942 0.90521,-1.34129 19.576664,9.42994 10.964042,6.32496 12.531602,7.45424 13.077782,9.42132 0.18902,0.68076 0.28559,6.35431 0.28657,16.83563 0.001,15.45709 -0.0103,15.82063 -0.52769,16.33802 -0.29104,0.29104 -0.61847,0.51295 -0.72761,0.49314 -0.10914,-0.0198 -0.44835,-0.0853 -0.75381,-0.14546 z m -13.961669,-19.0049 c -0.128201,-0.33409 -4.757612,-3.03861 -5.201281,-3.03861 -0.178662,0 -0.249201,1.0001 -0.200522,2.84297 l 0.0751,2.84298 2.645834,1.52426 2.645833,1.52426 0.07594,-2.6957 c 0.04176,-1.48264 0.02336,-2.83271 -0.0409,-3.00016 z m 0.505558,-3.36498 c 0.205533,-0.69459 0.618871,-1.0561 2.19734,-1.92178 2.489211,-1.36517 2.784811,-1.89682 2.635502,-4.74006 -0.09481,-1.80553 -0.254688,-2.4075 -1.023115,-3.85228 -1.116891,-2.09997 -3.117921,-4.14331 -5.722771,-5.84378 -2.062447,-1.34638 -6.038373,-2.83827 -6.792665,-2.54882 -0.357759,0.13728 -0.433846,0.58556 -0.433846,2.55604 0,1.31425 0.0893,2.39191 0.198437,2.39479 0.109141,0.003 1.006276,0.12205 1.993635,0.26482 3.483251,0.50366 6.010011,2.46578 6.010011,4.667 0,1.24395 -0.32653,1.57018 -2.838188,2.83559 -1.592971,0.80256 -2.2593,1.82791 -2.137773,3.28961 0.0779,0.93695 0.182439,1.03221 2.594711,2.36444 1.382448,0.76349 2.637748,1.38857 2.789555,1.38907 0.15181,5.2e-4 0.389935,-0.38409 0.529167,-0.85464 z m 19.746061,22.06823 c -0.43825,-0.43825 -0.51129,-1.15081 -0.67758,-6.61106 -0.10251,-3.36592 -0.10486,-10.61787 -0.005,-16.11544 0.23854,-13.15996 -0.40802,-11.8516 8.35935,-16.91576 2.81034,-1.62329 8.44346,-4.8804 12.51804,-7.23802 10.72417,-6.20519 11.16569,-6.399341 12.12982,-5.33398 0.39722,0.43892 0.43789,1.95815 0.43789,16.35673 v 15.87286 l -0.72761,1.43651 c -0.46818,0.92434 -1.15946,1.75449 -1.93888,2.32838 -2.28233,1.68051 -27.81681,16.31254 -28.88105,16.54972 -0.51115,0.11392 -0.86777,0.0171 -1.21477,-0.32994 z m 18.14407,-14.00021 0.8599,-0.43133 v -3.01896 -3.01896 l -1.38907,0.78589 c -0.76398,0.43223 -1.98437,1.13628 -2.71197,1.56454 l -1.32292,0.77865 -0.0749,2.97247 -0.0749,2.97247 1.92702,-1.08672 c 1.05986,-0.5977 2.31398,-1.28082 2.78692,-1.51805 z m -1.80571,-7.10792 c 2.52463,-1.46615 2.5571,-1.49786 2.86652,-2.80046 0.17213,-0.72463 1.1454,-2.70645 2.16282,-4.40404 2.03303,-3.39217 2.58651,-4.72101 2.83029,-6.7952 0.30748,-2.61618 -0.83433,-4.36112 -2.85371,-4.36112 -2.11823,0 -6.05706,2.18612 -9.55021,5.30051 l -1.52135,1.3564 v 2.54113 2.54111 l 2.47625,-2.42837 c 3.2662,-3.20305 5.41336,-4.18425 5.81291,-2.65635 0.22908,0.87601 -0.44264,2.6041 -1.93859,4.98724 -0.77645,1.23693 -1.75417,2.98004 -2.17271,3.87358 -0.81817,1.74668 -1.37115,4.3285 -0.92709,4.3285 0.14373,0 1.41042,-0.66732 2.81487,-1.48293 z M 101.4508,112.58395 C 99.799949,111.79876 75.711992,97.930252 73.127407,96.276913 71.730216,95.38314 71.658252,95.283863 71.735746,94.357073 71.835835,93.160052 70.991945,93.700885 89.012109,83.28498 l 13.225891,-7.64475 1.86112,-0.09398 c 1.7751,-0.08964 1.96477,-0.03928 4.10431,1.089739 4.49807,2.373597 27.6636,15.881123 28.37081,16.542659 1.26737,1.185515 0.89147,2.058082 -1.53419,3.561291 -2.45181,1.519414 -24.76707,14.392771 -26.7827,15.450561 -2.78112,1.45951 -4.37184,1.55146 -6.80655,0.39345 z m 14.37812,-12.30552 3.00104,-1.682264 -0.88437,-0.527209 c -2.15806,-1.286499 -3.88403,-2.192036 -4.17806,-2.192036 -0.41545,0 -6.09996,3.167296 -6.09596,3.396544 0.004,0.2432 4.27121,2.628945 4.75944,2.661095 0.21828,0.0144 1.74734,-0.73088 3.39791,-1.65613 z m -8.61464,-2.976164 c 0.75915,-0.380225 2.06625,-1.104056 2.90468,-1.60851 l 1.52441,-0.917192 -0.54838,-0.770125 c -0.49642,-0.69715 -0.53161,-1.002279 -0.37138,-3.220134 0.16358,-2.264369 0.13327,-2.505154 -0.40007,-3.1778 -0.31739,-0.400285 -1.13391,-1.054199 -1.81449,-1.453141 -1.09715,-0.643128 -1.55745,-0.736319 -4.06072,-0.822114 -2.38638,-0.08179 -3.10292,-0.0048 -4.630204,0.497688 -2.224839,0.731947 -4.904745,2.030131 -6.832806,3.309905 -1.530646,1.015984 -4.102563,3.22278 -4.101756,3.519451 5.29e-4,0.194206 1.970143,1.476817 3.341441,2.175947 l 0.891837,0.454684 1.89399,-1.953282 c 2.31707,-2.389603 3.966242,-3.284952 6.028898,-3.27314 2.3568,0.0135 2.4964,0.231492 2.27052,3.545468 l -0.18993,2.786552 0.79853,0.798531 c 0.97755,0.977548 1.52236,0.995273 3.29543,0.107212 z"
         id="path838" />
    </g>
  </g>
</svg>
